HIERARCHY
ROOT Hips
{
	OFFSET 0.00000 0.00000 0.00000
	CHANNELS 6 Xposition Yposition Zposition Yrotation Zrotation Xrotation 
	JOINT Lumbar
	{
		OFFSET 0 0 0
		CHANNELS 3 Zrotation Xrotation Yrotation
		JOINT Neck
		{
			OFFSET 0.00 0.2701 0.00
			CHANNELS 3 Zrotation Xrotation Yrotation
			End Site
			{
				OFFSET 0.00 0.1379 0.00
			}
		}
		JOINT RightShoulder
		{
			OFFSET 0.0119 0.2289 0.1181
			CHANNELS 3 Zrotation Xrotation Yrotation
			JOINT RightElbow
			{
				OFFSET 0.00 -0.1475 0.00
				CHANNELS 2 Zrotation Yrotation
				JOINT RightWrist
				{
					OFFSET 0.00 -0.1605 0.00
					CHANNELS 2 Zrotation Xrotation
					End Site
					{
						OFFSET 0.0040 -0.1068 0.0006
					}
				}
			}
		}
		JOINT LeftShoulder
		{
			OFFSET 0.0119 0.2289 -0.1181
			CHANNELS 3 Zrotation Xrotation Yrotation
			JOINT LeftElbow
			{
				OFFSET 0.00 -0.1475 0.00
				CHANNELS 2 Zrotation Yrotation
				JOINT LeftWrist
				{
					OFFSET 0.00 -0.1605 0.00
					CHANNELS 2 Zrotation Xrotation
					End Site
					{
						OFFSET 0.0040 -0.1068 -0.0006
					}
				}
			}
		}
	}
	JOINT RightHip
	{
		OFFSET 0.0316 -0.0424 0.0458
		CHANNELS 3 Zrotation Xrotation Yrotation
		JOINT RightKnee
		{
			OFFSET 0.00 -0.2438 0.00
			CHANNELS 1 Zrotation
			JOINT RightAnkle
			{
				OFFSET 0.00 -0.2449 0.00
				CHANNELS 3 Zrotation Xrotation Yrotation
				End Site
				{
					OFFSET 0.1237 -0.0542 0.0051
				}
			}
		}
	}
	JOINT LeftHip
	{
		OFFSET 0.0316 -0.0424 -0.0458
		CHANNELS 3 Zrotation Xrotation Yrotation
		JOINT LeftKnee
		{
			OFFSET 0.00 -0.2438 0.00
			CHANNELS 1 Zrotation
			JOINT LeftAnkle
			{
				OFFSET 0.00 -0.2449 0.00
				CHANNELS 3 Zrotation Xrotation Yrotation
				End Site
				{
					OFFSET 0.1237 -0.0542 -0.0051
				}
			}
		}
	}
}
MOTION
Frames: 17
Frame Time: 0.02
1.01668 0.558 -0.13549 1600.00082 0 6.57425 9.46059 0.56427 8.70081 -22.93745 -8.67991 -1.09967 13.49785 -4.79122 -23.79869 14.31745 79.61199 -2.53576 -2.3734 18.27299 14.68352 59.32243 121.81822 -47.7699 -67.29679 0.0638 -15.30025 0.61523 5.49263 -32.83483 7.8566 -5.83435 -7.90545 11.53072 -13.35184 6.73647 -9.27109 0.3961 0.78028 -3.18296
1.00287 0.55768 -0.1379 1599.25451 0 7.73007 9.57908 0.04952 8.98497 -23.19287 -8.95942 -1.15478 13.17365 -4.52149 -23.36315 13.70662 79.63741 -2.24958 -1.77974 18.36839 14.44105 59.60425 121.77066 -47.65009 -67.23036 0.10751 -13.15005 -1.95576 4.5451 -37.81937 4.66848 -4.84306 -4.7246 10.62136 -13.59427 13.92564 -10.93524 0.51511 0.52231 -5.19781
0.98979 0.55734 -0.13991 1598.26355 0 8.82475 9.45484 -0.3877 9.2973 -23.14051 -9.16474 -1.09818 12.62734 -4.40079 -22.88617 13.0683 79.67175 -1.96684 -1.10884 18.3143 14.14305 59.844 121.79456 -47.53967 -67.15215 0.16773 -10.19453 -4.78805 3.52094 -43.74688 0.82297 -3.73678 -0.84844 9.86612 -13.52373 22.55999 -13.12625 1.0474 0.44815 -7.12202
0.97648 0.557 -0.14214 1597.38212 0 9.92416 9.42841 -0.85768 9.57962 -23.21911 -9.37792 -1.08424 12.18627 -4.23288 -22.44392 12.45189 79.69857 -1.69566 -0.48213 18.32975 13.8637 60.09936 121.78262 -47.41345 -67.07592 0.21463 -7.57833 -7.42264 2.60513 -49.19947 -2.5851 -2.71764 2.54104 9.04446 -13.60199 30.28874 -15.0509 1.40239 0.2887 -9.03958
0.96272 0.5567 -0.14421 1596.50497 0 11.13014 9.45961 -1.34361 9.93602 -23.34295 -9.70295 -1.10858 11.72538 -3.97237 -21.93738 11.79005 79.73903 -1.36843 0.18608 18.34638 13.61124 60.36663 121.78179 -47.33039 -67.01507 0.28503 -5.06424 -10.40564 1.38008 -54.87831 -6.58851 -1.54054 6.65828 8.2103 -13.65866 39.09935 -17.13486 1.70559 0.12903 -11.17827
0.95008 0.55632 -0.14653 1595.56677 0 12.09261 9.313 -1.77479 10.13841 -23.29958 -9.77196 -1.02437 11.25494 -3.94629 -21.55246 11.22051 79.75304 -1.15809 0.78504 18.32158 13.28518 60.60057 121.77616 -47.16325 -66.91731 0.31126 -2.15613 -12.71387 0.77358 -60.27961 -9.50567 -0.66949 9.42617 7.43487 -13.68335 45.98362 -18.98685 2.21569 0.01665 -12.82789
0.94033 0.55566 -0.14954 1594.45855 0 12.4407 8.71294 -2.0865 9.98007 -22.8328 -9.20652 -0.67544 10.79684 -4.48447 -21.52929 10.8876 79.69729 -1.28166 1.17384 18.22371 12.82793 60.74768 121.73756 -46.74364 -66.74094 0.20594 1.7142 -13.16135 1.98173 -64.90757 -9.2442 -0.66818 8.2496 6.82008 -13.69927 47.2404 -20.16752 3.22041 -0.01141 -13.13824
0.93168 0.55494 -0.15284 1593.30819 0 12.53745 7.94527 -2.34323 9.65294 -22.21423 -8.37646 -0.21836 10.33991 -5.26287 -21.62595 10.65366 79.61298 -1.52108 1.49017 18.08729 12.2884 60.86354 121.69246 -46.24306 -66.52433 0.05671 5.93798 -12.90794 3.80097 -69.17722 -7.86892 -0.98055 5.70074 6.25314 -13.69231 46.49381 -21.07499 4.41589 0.0042 -12.95513
0.92254 0.5543 -0.15606 1592.21705 0 12.71978 7.26786 -2.61556 9.35725 -21.68716 -7.63192 0.19358 9.89247 -5.96146 -21.65837 10.39127 79.53951 -1.69946 1.83881 17.96435 11.74932 60.99795 121.65223 -45.79184 -66.31257 -0.0687 9.95456 -12.92943 5.28207 -73.46716 -7.01357 -1.1536 3.80716 5.63967 -13.69319 46.6341 -22.03542 5.50938 0.00033 -13.00694
0.91339 0.55346 -0.15904 1590.94888 0 13.01936 6.5232 -2.92303 9.25442 -21.05231 -7.03031 0.58881 9.39422 -6.53919 -21.73427 10.05813 79.47887 -1.91207 2.19146 17.85357 11.3647 61.11432 121.60645 -45.28761 -66.15625 -0.20985 14.20195 -13.14072 7.00985 -78.40584 -6.12216 -1.3105 1.79489 5.13311 -13.69455 46.93537 -23.3073 6.68169 -0.00337 -13.02586
0.90452 0.55299 -0.16259 1590.04181 0 13.01789 5.88123 -3.1476 8.70838 -20.61262 -6.07053 1.04765 9.00592 -7.42636 -21.74407 9.89615 79.3802 -2.08247 2.51929 17.71001 10.63888 61.25908 121.56964 -44.87473 -65.87617 -0.32888 18.03448 -12.7914 8.37705 -81.87849 -5.03417 -1.57489 -0.29308 4.4171 -13.69292 46.39339 -23.86884 7.72982 0.00627 -12.97847
0.89617 0.5536 -0.16759 1590.15089 0 12.22809 5.57169 -3.13595 6.99014 -20.72688 -4.17626 1.61563 8.91378 -9.085 -21.58287 10.18314 79.21772 -2.09461 2.7801 17.48795 8.99845 61.50876 121.55984 -44.73181 -65.25492 -0.37583 20.69243 -11.02412 8.54066 -81.53123 -3.65871 -2.07883 -2.3625 3.07674 -13.69435 44.12213 -22.44363 8.38599 -0.00734 -13.0326
0.88807 0.55455 -0.17315 1590.62463 0 11.14753 5.37151 -3.04653 4.83074 -21.04852 -1.93419 2.2503 8.93452 -11.04926 -21.34492 10.63851 79.00917 -2.06307 3.02071 17.23489 7.01747 61.78389 121.55867 -44.68405 -64.51255 -0.39911 22.90388 -8.72364 8.33286 -79.68898 -2.12322 -2.67689 -4.44444 1.52936 -13.69352 41.04743 -20.32768 8.90884 -0.00081 -13.00983
0.87987 0.55531 -0.17845 1590.92666 0 10.2128 5.11667 -3.00735 2.865 -21.29109 0.14312 2.8808 8.90968 -12.89035 -21.11383 11.01719 78.80223 -2.05992 3.28122 16.99454 5.18644 62.0363 121.55293 -44.59397 -63.83149 -0.43354 25.28055 -6.69255 8.33224 -78.43528 -0.66952 -3.21995 -6.45274 0.09877 -13.69218 38.25682 -18.58522 9.49237 0.02813 -12.91132
0.87169 0.55622 -0.18378 1591.25149 0 9.21233 4.8747 -2.90538 0.91766 -21.46369 2.26304 3.40692 8.86141 -14.67882 -20.99971 11.40207 78.68558 -2.02352 3.49542 16.75688 3.36837 62.3383 121.5503 -44.49687 -63.12157 -0.46795 27.83746 -4.52114 8.18569 -77.55699 0.85886 -3.8263 -8.79377 -1.42503 -13.69847 35.72379 -16.58087 10.08301 -0.07413 -13.25044
0.86348 0.5569 -0.18919 1591.61709 0 8.28195 4.6367 -2.91384 -1.16485 -21.83382 4.36703 4.16219 8.88771 -16.6397 -20.62908 11.81017 78.35816 -2.04604 3.80042 16.50887 1.4491 62.53892 121.54259 -44.43842 -62.44476 -0.49606 29.89787 -2.52663 8.25333 -75.54167 2.25782 -4.31807 -10.42892 -2.80564 -13.68598 32.50891 -14.96291 10.62391 0.10056 -12.68177
0.85523 0.55687 -0.1947 1591.99777 0 7.62599 4.36284 -3.26857 -3.56033 -22.69603 6.39404 5.55582 9.10218 -19.05645 -19.50916 12.26225 77.56746 -2.22774 4.3763 16.2226 -0.71267 62.49274 121.52504 -44.46017 -61.87956 -0.51363 30.78256 -1.13435 8.94174 -70.80101 3.23018 -4.47709 -10.088 -3.73049 -13.64494 27.44694 -14.57027 11.06408 1.03746 -9.49377
